<svg class="icon" style="width: 1em;height: 1em;vertical-align: middle;fill: red;overflow: hidden;" viewBox="0 0 1024 1024" version="1.1" xmlns="http://www.w3.org/2000/svg" p-id="3722"><path d="M937.198563 820.961724c-0.064468 0-0.12996 0-0.172939 0-12.286838-0.085958-22.163789-10.114358-22.056342-22.402219-0.021489-5.838985-1.995447-24.702612-10.549264-33.060977-11.20111-10.962679-35.361369-13.610996-42.936905-13.674441L387.977847 751.824087C205.330994 742.662427 63.136457 593.511455 63.136457 412.253228c0-188.117448 153.048745-341.154937 341.166193-341.154937 181.321672 0 330.453201 142.379755 339.481831 324.157821l0.042979 226.300073c0 12.285814-9.939373 22.228257-22.228257 22.228257-12.285814 0-22.228257-9.942443-22.228257-22.228257L699.370946 396.365376C691.512978 239.398392 561.898968 115.556852 404.302651 115.556852c-163.609265 0-296.708656 133.089158-296.708656 296.697399 0 157.553339 123.646088 287.190885 281.502325 295.136857l472.496288-0.021489c4.839215 0 47.820122 0.824785 73.891917 26.328645 23.574928 23.00904 23.963785 60.95528 23.941272 65.211211C959.31835 811.128775 949.39842 820.961724 937.198563 820.961724zM404.150178 586.804706c-97.118921 0-176.134533-78.994122-176.134533-176.091554 0-97.140411 79.015611-176.178535 176.134533-176.178535 97.118921 0 176.133509 79.038124 176.133509 176.178535C580.282664 507.810584 501.2691 586.804706 404.150178 586.804706zM404.150178 278.992155c-72.611761 0-131.676995 59.087747-131.676995 131.720997 0 72.589248 59.065234 131.632993 131.676995 131.632993 72.611761 0 131.678018-59.044768 131.678018-131.632993C535.828196 338.079902 476.761939 278.992155 404.150178 278.992155z" p-id="3723"></path></svg>