<svg class="icon" style="width: 1em;height: 1em;vertical-align: middle;fill: #fff;overflow: hidden;" viewBox="0 0 1024 1024" version="1.1" xmlns="http://www.w3.org/2000/svg" p-id="4701"><path d="M332.8 102.4a25.6 25.6 0 0 1 25.6 25.6v204.8a25.6 25.6 0 0 1-25.6 25.6H128a25.6 25.6 0 0 1-25.6-25.6V128a25.6 25.6 0 0 1 25.6-25.6h204.8m0-102.4H128a128 128 0 0 0-128 128v204.8a128 128 0 0 0 128 128h204.8a128 128 0 0 0 128-128V128a128 128 0 0 0-128-128zM896 102.4a25.6 25.6 0 0 1 25.6 25.6v384a25.6 25.6 0 0 1-25.6 25.6h-204.8a25.6 25.6 0 0 1-25.6-25.6V128a25.6 25.6 0 0 1 25.6-25.6h204.8m0-102.4h-204.8a128 128 0 0 0-128 128v384a128 128 0 0 0 128 128h204.8a128 128 0 0 0 128-128V128a128 128 0 0 0-128-128zM896 819.2a25.6 25.6 0 0 1 25.6 25.6v51.2a25.6 25.6 0 0 1-25.6 25.6h-204.8a25.6 25.6 0 0 1-25.6-25.6v-51.2a25.6 25.6 0 0 1 25.6-25.6h204.8m0-102.4h-204.8a128 128 0 0 0-128 128v51.2a128 128 0 0 0 128 128h204.8a128 128 0 0 0 128-128v-51.2a128 128 0 0 0-128-128zM332.8 665.6a25.6 25.6 0 0 1 25.6 25.6v204.8a25.6 25.6 0 0 1-25.6 25.6H128a25.6 25.6 0 0 1-25.6-25.6v-204.8a25.6 25.6 0 0 1 25.6-25.6h204.8m0-102.4H128a128 128 0 0 0-128 128v204.8a128 128 0 0 0 128 128h204.8a128 128 0 0 0 128-128v-204.8a128 128 0 0 0-128-128z" p-id="4702"></path></svg>