<svg class="icon" style="width: 1em;height: 1em;vertical-align: middle;fill: currentColor;overflow: hidden;" viewBox="0 0 1024 1024" version="1.1" xmlns="http://www.w3.org/2000/svg" p-id="7243"><path d="M539.9 809.2c-4 0-8-1.5-11.1-4.5L273.5 561.5c-13.7-13-21.2-30.6-21.2-49.5s7.5-36.4 21.2-49.5l255.2-243.3c6.4-6.1 16.6-5.9 22.8 0.5s5.9 16.6-0.5 22.8L295.8 485.9c-7.2 6.9-11.2 16.2-11.2 26.1 0 10 4 19.3 11.2 26.1L551 781.5c6.4 6.1 6.7 16.3 0.5 22.8-3.1 3.3-7.4 4.9-11.6 4.9z" fill="#333333" p-id="7244"></path><path d="M755.6 531.7H395.3c-8.9 0-16.1-7.2-16.1-16.1 0-8.9 7.2-16.1 16.1-16.1h360.2c8.9 0 16.1 7.2 16.1 16.1 0.1 8.8-7.1 16.1-16 16.1z" fill="#EF7F1A" p-id="7245"></path></svg>