<svg class="icon" style="width: 1em;height: 1em;vertical-align: middle;fill: currentColor;overflow: hidden;" viewBox="0 0 1024 1024" version="1.1" xmlns="http://www.w3.org/2000/svg" p-id="530"><path d="M466.104525 37.76512h427.80672c35.90144 0 68.54656 15.23712 92.16 39.75168A135.9872 135.9872 0 0 1 1024.000205 171.95008V712.9088a135.9872 135.9872 0 0 1-37.92896 94.43328 128.45056 128.45056 0 0 1-78.2336 38.97344 166.95296 166.95296 0 0 1-46.7968 90.89024 166.58432 166.58432 0 0 1-118.0672 49.02912c-82.51392 0-151.36768-60.35456-164.74112-139.14112h-107.74528c-13.37344 78.80704-82.2272 139.14112-164.72064 139.14112a166.5024 166.5024 0 0 1-118.0672-49.02912 167.0144 167.0144 0 0 1-46.67392-90.112h-10.93632c-35.90144 0-68.52608-15.21664-92.16-39.75168A135.9872 135.9872 0 0 1 0.000205 712.9088V481.52576c0-27.01312 2.51904-49.2544 14.27456-71.12704 11.42784-21.27872 30.94528-40.30464 64.59392-60.37504l176.39424-105.2672c42.98752-25.66144 49.82784-61.72672 55.97184-94.3104 11.4688-60.7232 21.2992-112.68096 154.86976-112.68096z m118.76352 236.97408v208.93696c0 11.3664-11.38688 22.7328-22.7328 22.7328h-148.11136c-32.39936 0-32.48128-45.48608 0-45.48608h125.35808v-186.20416c0-32.39936 45.48608-32.4608 45.48608 0.02048z m324.096 525.43488a83.33312 83.33312 0 0 0 44.40064-24.28928 90.60352 90.60352 0 0 0 25.12896-62.976V171.95008c0-24.576-9.6256-46.87872-25.12896-62.976a82.45248 82.45248 0 0 0-59.45344-25.72288H466.104525c-95.98976 0-102.58432 34.83648-110.2848 75.53024-7.96672 42.12736-16.7936 88.7808-77.312 124.88704l-176.39424 105.2672c-25.94816 15.48288-40.3456 28.93824-47.88224 42.96704-7.22944 13.43488-8.76544 29.45024-8.76544 49.62304V712.9088c0 24.576 9.6256 46.87872 25.12896 62.976a82.5344 82.5344 0 0 0 59.45344 25.72288h9.48224c8.8064-83.84512 80.05632-149.56544 166.17472-149.56544a166.5024 166.5024 0 0 1 118.0672 49.02912 166.7072 166.7072 0 0 1 48.10752 100.53632h104.8576a166.7072 166.7072 0 0 1 48.128-100.53632 166.54336 166.54336 0 0 1 118.0672-49.02912c85.64736-0.02048 156.5696 64.96256 166.03136 148.13184z m-165.9904-102.66624a121.344 121.344 0 0 0-85.9136 35.69664 121.2416 121.2416 0 0 0-35.69664 85.9136c0 66.9696 54.64064 121.61024 121.61024 121.61024a121.22112 121.22112 0 0 0 85.9136-35.69664 121.2416 121.2416 0 0 0 35.69664-85.9136c0-66.9696-54.64064-121.61024-121.61024-121.61024z m-437.22752 0c-66.9696 0-121.61024 54.64064-121.61024 121.61024 0 33.46432 13.68064 63.87712 35.69664 85.9136a121.2416 121.2416 0 0 0 85.9136 35.69664c66.9696 0 121.61024-54.64064 121.61024-121.61024a121.22112 121.22112 0 0 0-35.69664-85.9136 121.26208 121.26208 0 0 0-85.9136-35.69664z" fill="#595757" p-id="531"></path></svg>