<svg class="icon" style="width: 1em;height: 1em;vertical-align: middle;fill: currentColor;overflow: hidden;" viewBox="0 0 1024 1024" version="1.1" xmlns="http://www.w3.org/2000/svg" p-id="563"><path d="M687.4 304.4c4.3-3.5 8.8-7 12.8-11.1 30.7-31.5 52.9-68.4 62.6-104.2 11.2-41.5 4.7-77.4-18.3-100.9C729.1 72.4 707.7 64 682.8 64c-44.1 0-95.9 26-138.4 69.6-8.5 8.7-15.6 18.2-21.6 28.2-6.1-10-13.2-19.6-21.7-28.3C458.6 90 406.9 64 362.7 64c-24.9 0-46.3 8.3-61.7 24.1-23 23.5-29.5 59.3-18.3 100.7 9.6 35.8 31.9 72.8 62.6 104.3 4.1 4.2 8.6 7.7 13 11.3H63.9v228.3h83.9v427.4h728.5V532.7h83.9V304.4H687.4zM583.9 174.2c31.3-32.1 70.1-52.8 98.8-52.8 9.9 0 17.4 2.5 22.2 7.4 8 8.2 9.4 24.6 3.9 45-7 26-24.6 54.9-48.2 79.1-29 29.7-75.3 36.8-105.9 38-0.1-12.8-1-28.6-3.6-45.8 4.6-25.1 14-51.7 32.8-70.9z m-247.3-0.6c-5.5-20.4-4.1-36.8 3.9-44.9 4.8-4.9 12.2-7.4 22.2-7.4 28.8 0 67.6 20.7 98.8 52.7 18.8 19.2 28.2 46 32.9 71-2.6 17-3.5 32.8-3.7 45.5-30.7-1.2-77-8.2-105.9-37.9-23.7-24.3-41.3-53-48.2-79zM120.2 475.3V361.7h306.4v113.6H120.2z m83.9 427.4v-370h222.6v370H204.1z m279.8 0v-541H540v541h-56.1z m336 0H597.3v-370h222.6v370z m83.9-427.4H597.3V361.7h306.4v113.6z" p-id="564"></path></svg>